<svg xmlns="http://www.w3.org/2000/svg" viewBox="0 0 539.0977 175.68">
  <defs>
    <style>
      .a {
        fill: #213a71;
      }

      .b, .c, .d {
        fill: none;
      }

      .c, .d {
        stroke: #213a71;
        stroke-miterlimit: 10;
      }

      .c {
        stroke-width: 7.7734px;
      }

      .d {
        stroke-width: 8.6073px;
      }
    </style>
  </defs>
  <title>Valokuvaaja Miika Kangasniemi</title>
  <g>
    <g>
      <path class="a" d="M19.0581,73.5885l-15.9-57.2559H19.2227l9.8037,46.1343,9.062-46.1343h15.57L38.5,73.5885Z" transform="translate(-3.1582 -2.6473)"/>
      <path class="a" d="M65.189,61.89,62.6348,73.5885H46.8174L63.7881,16.3327H82.0771L99.0479,73.5885H82.9009L80.3472,61.89Zm7.5791-34.6831-5.19,23.8086h10.38Z" transform="translate(-3.1582 -2.6473)"/>
      <path class="b" d="M269.3994,73.5885H251.9341L235.0459,43.1071l16.9707-26.7744H267.916L250.6987,41.8712Z" transform="translate(-3.1582 -2.6473)"/>
      <path class="a" d="M294.7686,75.0714c-15.5693,0-23.0664-8.4028-23.0664-20.6777V16.3327h15.24V53.8991c0,6.7554,2.2246,10.0508,7.8262,10.0508,5.5205,0,7.7441-3.2954,7.7441-10.0508V16.3327h15.3232v38.061C317.8359,66.0094,310.2568,75.0714,294.7686,75.0714Z" transform="translate(-3.1582 -2.6473)"/>
      <path class="a" d="M335.708,73.5885l-15.9-57.2559h16.0645l9.8037,46.1343,9.0625-46.1343h15.5693L355.1494,73.5885Z" transform="translate(-3.1582 -2.6473)"/>
      <path class="a" d="M381.8379,61.89l-2.5537,11.6982H363.4668l16.9707-57.2559h18.2891l16.9707,57.2559H399.5508L396.9961,61.89Zm7.5791-34.6831-5.1895,23.8086h10.38Z" transform="translate(-3.1582 -2.6473)"/>
      <path class="a" d="M430.9326,61.89l-2.5537,11.6982H412.5615l16.9707-57.2559h18.2891L464.792,73.5885H448.6455L446.0908,61.89Zm7.5791-34.6831-5.1895,23.8086h10.38Z" transform="translate(-3.1582 -2.6473)"/>
      <path class="a" d="M466.0234,88.3351l-4.0361-10.71c7.332-2.8833,8.2383-6.92,8.2383-13.5107V16.3327h15.24V64.6911C485.4658,79.85,475.8271,85.1222,466.0234,88.3351Z" transform="translate(-3.1582 -2.6473)"/>
      <path class="a" d="M506.4707,61.89,503.917,73.5885H488.1L505.07,16.3327h18.2891L540.33,73.5885H524.1836L521.6289,61.89ZM514.05,27.2072,508.86,51.0158h10.38Z" transform="translate(-3.1582 -2.6473)"/>
    </g>
    <g>
      <path class="a" d="M40.2759,164.5792,38.7266,144.506c-.5806-6.9707-1.0322-14.458-1.0972-18.1377l-9.6172,33.1768H22.2681L12.1343,126.3038c0,5.2285-.3228,12.1348-.8389,18.6543L9.8105,164.5792H4.002l3.6787-44.4717h8.2617l9.3594,32.3369,8.9067-32.3369h8.3267l3.6787,44.4717Z" transform="translate(-3.1582 -2.6473)"/>
      <path class="a" d="M64.61,118.3009a4.1642,4.1642,0,1,1-4.1953-4.0664A3.9526,3.9526,0,0,1,64.61,118.3009Zm-7.1,46.2783V130.5646h5.938v34.0146Z" transform="translate(-3.1582 -2.6473)"/>
      <path class="a" d="M82.8125,118.3009a4.1642,4.1642,0,1,1-4.1953-4.0664A3.9526,3.9526,0,0,1,82.8125,118.3009Zm-7.1,46.2783V130.5646h5.938v34.0146Z" transform="translate(-3.1582 -2.6473)"/>
      <path class="a" d="M93.915,164.5792V116.881l5.938-.71v48.4082Zm26.915,0h-7.1L100.24,145.99l12.522-15.4258H119.41l-12.5215,15.0381Z" transform="translate(-3.1582 -2.6473)"/>
      <path class="a" d="M152.3945,161.2228l-1.3555,4.1309c-3.4209-.3867-5.6157-1.7422-6.6484-5.0986a11.5886,11.5886,0,0,1-10.1333,5.0986c-6.7773,0-10.8437-4.1953-10.8437-10.2627,0-7.293,5.4863-11.23,14.9746-11.23h5.228v-2.5176c0-4.9053-2.3882-6.7129-7.1-6.7129a30.44,30.44,0,0,0-9.1655,1.8076l-1.4844-4.3242a33.3081,33.3081,0,0,1,11.7471-2.3242c8.1968,0,11.94,4.1963,11.94,11.2959V156.64C149.5542,159.61,150.6519,160.5773,152.3945,161.2228Zm-8.7783-5.6152v-7.81h-4.4536c-6.2607,0-9.4233,2.3232-9.4233,6.9707,0,4.002,2.001,6.1318,5.8735,6.1318C139.0981,160.9005,141.68,159.1574,143.6162,155.6076Z" transform="translate(-3.1582 -2.6473)"/>
      <path class="a" d="M179.1816,164.5792V120.1076h6.1318v44.4717Zm31.562,0h-7.5513l-17.5566-23.752,16.9111-20.72h6.9707L192.6714,140.44Z" transform="translate(-3.1582 -2.6473)"/>
      <path class="a" d="M242.3081,161.2228l-1.3555,4.1309c-3.4209-.3867-5.6157-1.7422-6.6484-5.0986a11.5886,11.5886,0,0,1-10.1333,5.0986c-6.7773,0-10.8437-4.1953-10.8437-10.2627,0-7.293,5.4863-11.23,14.9746-11.23h5.228v-2.5176c0-4.9053-2.3882-6.7129-7.1-6.7129a30.44,30.44,0,0,0-9.165,1.8076l-1.4844-4.3242a33.3081,33.3081,0,0,1,11.7471-2.3242c8.1973,0,11.94,4.1963,11.94,11.2959V156.64C239.4678,159.61,240.5654,160.5773,242.3081,161.2228Zm-8.7783-5.6152v-7.81h-4.4536c-6.2607,0-9.4233,2.3232-9.4233,6.9707,0,4.002,2.001,6.1318,5.8735,6.1318C229.0117,160.9005,231.5938,159.1574,233.53,155.6076Z" transform="translate(-3.1582 -2.6473)"/>
      <path class="a" d="M277.5508,140.1818v24.3975h-5.9385V141.0206c0-5.1-2.0654-6.584-5.3574-6.584-3.8081,0-6.39,2.3887-8.6489,6.0029v24.14h-5.938V130.5646h5.0991l.5161,5.0342a12.34,12.34,0,0,1,10.3916-5.81C273.9355,129.7892,277.5508,133.7267,277.5508,140.1818Z" transform="translate(-3.1582 -2.6473)"/>
      <path class="a" d="M306.9834,133.1456c4.002,1.8076,6.0029,4.6475,6.0029,8.585,0,6.7129-4.8408,11.5537-12.9736,11.5537a13.781,13.781,0,0,1-4.3242-.6455,4.1,4.1,0,0,0-1.6787,3.1621c0,1.55.9688,2.7754,4.4541,2.7754h5.4219c6.9707,0,11.6182,4.002,11.6182,9.4238,0,6.584-5.4219,10.3271-15.9424,10.3271-11.1025,0-14.5879-3.4209-14.5879-10.3271h5.3574c0,3.873,1.7432,5.68,9.23,5.68,7.3574,0,9.9395-1.8721,9.9395-5.292,0-3.2275-2.582-4.8418-6.8418-4.8418h-5.3574c-6.0674,0-8.7783-3.0332-8.7783-6.4541,0-2.1943,1.291-4.3887,3.7441-6.0029a9.7374,9.7374,0,0,1-5.7441-9.4229c0-6.9707,5.6152-11.877,13.1025-11.877,8.4551.1943,11.5527-1.2256,15.5547-3.0332l1.7432,5.3574C314.084,133.0167,310.8564,133.1456,306.9834,133.1456ZM292.59,141.6661c0,4.5176,2.5176,7.6807,7.165,7.6807s7.1641-2.84,7.1641-7.7451c0-4.9707-2.4521-7.5518-7.293-7.5518C295.043,134.05,292.59,137.212,292.59,141.6661Z" transform="translate(-3.1582 -2.6473)"/>
      <path class="a" d="M348.81,161.2228l-1.3555,4.1309c-3.4209-.3867-5.6152-1.7422-6.6475-5.0986a11.59,11.59,0,0,1-10.1338,5.0986c-6.7773,0-10.8437-4.1953-10.8437-10.2627,0-7.293,5.4863-11.23,14.9746-11.23h5.2285v-2.5176c0-4.9053-2.3887-6.7129-7.1006-6.7129a30.4429,30.4429,0,0,0-9.165,1.8076l-1.4844-4.3242a33.306,33.306,0,0,1,11.7471-2.3242c8.1973,0,11.94,4.1963,11.94,11.2959V156.64C345.97,159.61,347.0674,160.5773,348.81,161.2228Zm-8.7773-5.6152v-7.81h-4.4541c-6.2607,0-9.4238,2.3232-9.4238,6.9707,0,4.002,2.001,6.1318,5.874,6.1318C335.5137,160.9005,338.0957,159.1574,340.0322,155.6076Z" transform="translate(-3.1582 -2.6473)"/>
      <path class="a" d="M378.9521,133.6622,376.37,137.6a14.2985,14.2985,0,0,0-8.7773-3.0986c-3.873,0-6.2607,1.7432-6.2607,4.4541,0,2.7754,1.8066,4.0664,7.293,5.4863,7.1641,1.8066,11.2949,4.6475,11.2949,10.585,0,7.1-6.5186,10.3271-13.4248,10.3271a18.8665,18.8665,0,0,1-12.8447-4.4531l3.292-3.7441a14.1981,14.1981,0,0,0,9.4238,3.4209c4.4531,0,7.293-2.001,7.293-4.97,0-3.55-1.6777-4.8408-8.2617-6.584-7.3574-1.9355-10.2627-5.0986-10.2627-9.9395,0-5.3574,5.2285-9.2949,12.2637-9.2949A18.0674,18.0674,0,0,1,378.9521,133.6622Z" transform="translate(-3.1582 -2.6473)"/>
      <path class="a" d="M414.1953,140.1818v24.3975h-5.9385V141.0206c0-5.1-2.0654-6.584-5.3574-6.584-3.8076,0-6.39,2.3887-8.6484,6.0029v24.14h-5.9385V130.5646h5.0986l.5166,5.0342a12.34,12.34,0,0,1,10.3916-5.81C410.58,129.7892,414.1953,133.7267,414.1953,140.1818Z" transform="translate(-3.1582 -2.6473)"/>
      <path class="a" d="M433.2373,118.3009a4.1642,4.1642,0,1,1-4.1953-4.0664A3.9526,3.9526,0,0,1,433.2373,118.3009Zm-7.1,46.2783V130.5646h5.9385v34.0146Z" transform="translate(-3.1582 -2.6473)"/>
      <path class="a" d="M469.8994,149.6046H448.2129c.58,7.875,4.26,10.9082,9.165,10.9082a14.3192,14.3192,0,0,0,8.8428-2.9687l2.5811,3.55a18.5369,18.5369,0,0,1-11.876,4.26c-9.4883,0-15.0391-6.6484-15.0391-17.4268,0-10.5859,5.3574-18.1377,14.1357-18.1377,9.165,0,14.0059,6.3906,14.0059,16.7822C470.0283,147.7335,469.9639,148.83,469.8994,149.6046Zm-5.7441-4.7764c0-6.6475-2.6465-10.3271-8.0039-10.3271-4.5186,0-7.4873,3.1631-7.9385,10.7148h15.9424Z" transform="translate(-3.1582 -2.6473)"/>
      <path class="a" d="M523.2139,140.1818v24.3975h-5.9385V141.0206c0-5.1-2.1943-6.584-4.7764-6.584-3.6787,0-5.68,2.3887-8.0029,6.0029v24.14h-5.9385V141.0206c0-5.1-2.1943-6.584-4.7764-6.584-3.6787,0-5.7441,2.3887-8.0029,6.0029v24.14H479.84V130.5646h5.0986l.5166,4.97c2.2588-3.4209,5.3574-5.7451,9.8105-5.7451a8.574,8.574,0,0,1,8.585,6.1318c2.4521-3.6787,5.5508-6.1318,10.1338-6.1318C519.5352,129.7892,523.2139,133.7911,523.2139,140.1818Z" transform="translate(-3.1582 -2.6473)"/>
      <path class="a" d="M542.2559,118.3009a4.1642,4.1642,0,1,1-4.1953-4.0664A3.9526,3.9526,0,0,1,542.2559,118.3009Zm-7.1,46.2783V130.5646h5.9385v34.0146Z" transform="translate(-3.1582 -2.6473)"/>
    </g>
    <g>
      <circle class="c" cx="174.9103" cy="42.31" r="22.6414"/>
      <circle class="d" cx="174.9103" cy="42.31" r="38.0063"/>
    </g>
    <path class="a" d="M101.9039,16.3317h15.2829l-.0132,45.3356h17.1045a43.988,43.988,0,0,0,7.3976,11.9155H101.9039Z" transform="translate(-3.1582 -2.6473)"/>
    <path class="a" d="M219.365,16.3317s16.64,22.3232,0,57.2511h15.1916V16.3317Z" transform="translate(-3.1582 -2.6473)"/>
    <polygon class="a" points="248.869 13.684 231.863 40.523 248.742 70.936 266.255 70.936 247.518 39.257 264.693 13.684 248.869 13.684"/>
  </g>
</svg>
